<svg id="my-svg" width="100%" xmlns="http://www.w3.org/2000/svg" xmlns:xlink="http://www.w3.org/1999/xlink" style="max-width: 700px; background-color: transparent;" viewBox="0 0 700 500" role="graphics-document document" aria-roledescription="xychart"><style>#my-svg{font-family:"trebuchet ms",verdana,arial,sans-serif;font-size:16px;fill:#fff;}@keyframes edge-animation-frame{from{stroke-dashoffset:0;}}@keyframes dash{to{stroke-dashoffset:0;}}#my-svg .edge-animation-slow{stroke-dasharray:9,5!important;stroke-dashoffset:900;animation:dash 50s linear infinite;stroke-linecap:round;}#my-svg .edge-animation-fast{stroke-dasharray:9,5!important;stroke-dashoffset:900;animation:dash 20s linear infinite;stroke-linecap:round;}#my-svg .error-icon{fill:#e8f4f8;}#my-svg .error-text{fill:#170b07;stroke:#170b07;}#my-svg .edge-thickness-normal{stroke-width:1px;}#my-svg .edge-thickness-thick{stroke-width:3.5px;}#my-svg .edge-pattern-solid{stroke-dasharray:0;}#my-svg .edge-thickness-invisible{stroke-width:0;fill:none;}#my-svg .edge-pattern-dashed{stroke-dasharray:3;}#my-svg .edge-pattern-dotted{stroke-dasharray:2;}#my-svg .marker{fill:#533483;stroke:#533483;}#my-svg .marker.cross{stroke:#533483;}#my-svg svg{font-family:"trebuchet ms",verdana,arial,sans-serif;font-size:16px;}#my-svg p{margin:0;}#my-svg :root{--mermaid-font-family:"trebuchet ms",verdana,arial,sans-serif;}</style><g/><g class="main"><rect width="700" height="500" class="background" fill="#f4f4f4"/><g class="chart-title"><text x="0" y="0" fill="#fff" font-size="20" dominant-baseline="middle" text-anchor="middle" transform="translate(350, 21.5) rotate(0)">ARR成長ロードマップ（万円）</text></g><g class="plot"><g class="bar-plot-0"><rect x="85.86718940734863" y="459" width="95" height="8" fill="#FFF4DD" stroke="#FFF4DD" stroke-width="0"/><rect x="258.0781262715658" y="442" width="95" height="25" fill="#FFF4DD" stroke="#FFF4DD" stroke-width="0"/><rect x="430.2890631357829" y="357" width="95" height="110" fill="#FFF4DD" stroke="#FFF4DD" stroke-width="0"/><rect x="602.5" y="118.99999999999999" width="95" height="348" fill="#FFF4DD" stroke="#FFF4DD" stroke-width="0"/></g><g class="line-plot-1"><path d="M133.367,459L305.578,442L477.789,357L650,119" fill="none" stroke="#FFD8B1" stroke-width="2"/></g></g><g class="bottom-axis"><g class="axis-line"><path d="M 83.36718940734863,468 L 700,468" fill="none" stroke="#fff" stroke-width="2"/></g><g class="label"><text x="0" y="0" fill="#fff" font-size="14" dominant-baseline="text-before-edge" text-anchor="middle" transform="translate(133.36718940734863, 479) rotate(0)">Year 0</text><text x="0" y="0" fill="#fff" font-size="14" dominant-baseline="text-before-edge" text-anchor="middle" transform="translate(305.5781262715658, 479) rotate(0)">Year 1</text><text x="0" y="0" fill="#fff" font-size="14" dominant-baseline="text-before-edge" text-anchor="middle" transform="translate(477.7890631357829, 479) rotate(0)">Year 2</text><text x="0" y="0" fill="#fff" font-size="14" dominant-baseline="text-before-edge" text-anchor="middle" transform="translate(650, 479) rotate(0)">Year 3</text></g><g class="ticks"><path d="M 133.36718940734863,469 L 133.36718940734863,474" fill="none" stroke="#fff" stroke-width="2"/><path d="M 305.5781262715658,469 L 305.5781262715658,474" fill="none" stroke="#fff" stroke-width="2"/><path d="M 477.7890631357829,469 L 477.7890631357829,474" fill="none" stroke="#fff" stroke-width="2"/><path d="M 650,469 L 650,474" fill="none" stroke="#fff" stroke-width="2"/></g></g><g class="left-axis"><g class="axisl-line"><path d="M 82.36718940734863,43 L 82.36718940734863,467" fill="none" stroke="#fff" stroke-width="2"/></g><g class="label"><text x="0" y="0" fill="#fff" font-size="14" dominant-baseline="middle" text-anchor="end" transform="translate(71.36718940734863, 51) rotate(0)">12000</text><text x="0" y="0" fill="#fff" font-size="14" dominant-baseline="middle" text-anchor="end" transform="translate(71.36718940734863, 85.00000000000001) rotate(0)">11000</text><text x="0" y="0" fill="#fff" font-size="14" dominant-baseline="middle" text-anchor="end" transform="translate(71.36718940734863, 118.99999999999999) rotate(0)">10000</text><text x="0" y="0" fill="#fff" font-size="14" dominant-baseline="middle" text-anchor="end" transform="translate(71.36718940734863, 153) rotate(0)">9000</text><text x="0" y="0" fill="#fff" font-size="14" dominant-baseline="middle" text-anchor="end" transform="translate(71.36718940734863, 187.00000000000003) rotate(0)">8000</text><text x="0" y="0" fill="#fff" font-size="14" dominant-baseline="middle" text-anchor="end" transform="translate(71.36718940734863, 220.99999999999997) rotate(0)">7000</text><text x="0" y="0" fill="#fff" font-size="14" dominant-baseline="middle" text-anchor="end" transform="translate(71.36718940734863, 255) rotate(0)">6000</text><text x="0" y="0" fill="#fff" font-size="14" dominant-baseline="middle" text-anchor="end" transform="translate(71.36718940734863, 288.99999999999994) rotate(0)">5000</text><text x="0" y="0" fill="#fff" font-size="14" dominant-baseline="middle" text-anchor="end" transform="translate(71.36718940734863, 323.00000000000006) rotate(0)">4000</text><text x="0" y="0" fill="#fff" font-size="14" dominant-baseline="middle" text-anchor="end" transform="translate(71.36718940734863, 357) rotate(0)">3000</text><text x="0" y="0" fill="#fff" font-size="14" dominant-baseline="middle" text-anchor="end" transform="translate(71.36718940734863, 391) rotate(0)">2000</text><text x="0" y="0" fill="#fff" font-size="14" dominant-baseline="middle" text-anchor="end" transform="translate(71.36718940734863, 425) rotate(0)">1000</text><text x="0" y="0" fill="#fff" font-size="14" dominant-baseline="middle" text-anchor="end" transform="translate(71.36718940734863, 459) rotate(0)">0</text></g><g class="ticks"><path d="M 81.36718940734863,51 L 76.36718940734863,51" fill="none" stroke="#fff" stroke-width="2"/><path d="M 81.36718940734863,85.00000000000001 L 76.36718940734863,85.00000000000001" fill="none" stroke="#fff" stroke-width="2"/><path d="M 81.36718940734863,118.99999999999999 L 76.36718940734863,118.99999999999999" fill="none" stroke="#fff" stroke-width="2"/><path d="M 81.36718940734863,153 L 76.36718940734863,153" fill="none" stroke="#fff" stroke-width="2"/><path d="M 81.36718940734863,187.00000000000003 L 76.36718940734863,187.00000000000003" fill="none" stroke="#fff" stroke-width="2"/><path d="M 81.36718940734863,220.99999999999997 L 76.36718940734863,220.99999999999997" fill="none" stroke="#fff" stroke-width="2"/><path d="M 81.36718940734863,255 L 76.36718940734863,255" fill="none" stroke="#fff" stroke-width="2"/><path d="M 81.36718940734863,288.99999999999994 L 76.36718940734863,288.99999999999994" fill="none" stroke="#fff" stroke-width="2"/><path d="M 81.36718940734863,323.00000000000006 L 76.36718940734863,323.00000000000006" fill="none" stroke="#fff" stroke-width="2"/><path d="M 81.36718940734863,357 L 76.36718940734863,357" fill="none" stroke="#fff" stroke-width="2"/><path d="M 81.36718940734863,391 L 76.36718940734863,391" fill="none" stroke="#fff" stroke-width="2"/><path d="M 81.36718940734863,425 L 76.36718940734863,425" fill="none" stroke="#fff" stroke-width="2"/><path d="M 81.36718940734863,459 L 76.36718940734863,459" fill="none" stroke="#fff" stroke-width="2"/></g><g class="title"><text x="0" y="0" fill="#fff" font-size="16" dominant-baseline="text-before-edge" text-anchor="middle" transform="translate(5, 255) rotate(270)">ARR（万円）</text></g></g></g><g class="mermaid-tmp-group"/></svg>