<svg id="my-svg" width="100%" xmlns="http://www.w3.org/2000/svg" xmlns:xlink="http://www.w3.org/1999/xlink" style="max-width: 700px; background-color: transparent;" viewBox="0 0 700 500" role="graphics-document document" aria-roledescription="xychart"><style>#my-svg{font-family:"trebuchet ms",verdana,arial,sans-serif;font-size:16px;fill:#fff;}@keyframes edge-animation-frame{from{stroke-dashoffset:0;}}@keyframes dash{to{stroke-dashoffset:0;}}#my-svg .edge-animation-slow{stroke-dasharray:9,5!important;stroke-dashoffset:900;animation:dash 50s linear infinite;stroke-linecap:round;}#my-svg .edge-animation-fast{stroke-dasharray:9,5!important;stroke-dashoffset:900;animation:dash 20s linear infinite;stroke-linecap:round;}#my-svg .error-icon{fill:#e8f4f8;}#my-svg .error-text{fill:#170b07;stroke:#170b07;}#my-svg .edge-thickness-normal{stroke-width:1px;}#my-svg .edge-thickness-thick{stroke-width:3.5px;}#my-svg .edge-pattern-solid{stroke-dasharray:0;}#my-svg .edge-thickness-invisible{stroke-width:0;fill:none;}#my-svg .edge-pattern-dashed{stroke-dasharray:3;}#my-svg .edge-pattern-dotted{stroke-dasharray:2;}#my-svg .marker{fill:#533483;stroke:#533483;}#my-svg .marker.cross{stroke:#533483;}#my-svg svg{font-family:"trebuchet ms",verdana,arial,sans-serif;font-size:16px;}#my-svg p{margin:0;}#my-svg :root{--mermaid-font-family:"trebuchet ms",verdana,arial,sans-serif;}</style><g/><g class="main"><rect width="700" height="500" class="background" fill="#f4f4f4"/><g class="chart-title"><text x="0" y="0" fill="#fff" font-size="20" dominant-baseline="middle" text-anchor="middle" transform="translate(350, 21.5) rotate(0)">日本DX市場規模の推移（兆円）</text></g><g class="plot"><g class="bar-plot-0"><rect x="62.84179878234863" y="343.536" width="57" height="123.464" fill="#FFF4DD" stroke="#FFF4DD" stroke-width="0"/><rect x="159.28483231862384" y="294.98400000000004" width="57" height="172.01599999999996" fill="#FFF4DD" stroke="#FFF4DD" stroke-width="0"/><rect x="255.72786585489905" y="275.40000000000003" width="57" height="191.59999999999997" fill="#FFF4DD" stroke="#FFF4DD" stroke-width="0"/><rect x="352.1708993911743" y="263.16" width="57" height="203.83999999999997" fill="#FFF4DD" stroke="#FFF4DD" stroke-width="0"/><rect x="448.6139329274495" y="247.248" width="57" height="219.752" fill="#FFF4DD" stroke="#FFF4DD" stroke-width="0"/><rect x="545.0569664637247" y="193.79999999999998" width="57" height="273.20000000000005" fill="#FFF4DD" stroke="#FFF4DD" stroke-width="0"/><rect x="641.5" y="95.88" width="57" height="371.12" fill="#FFF4DD" stroke="#FFF4DD" stroke-width="0"/></g></g><g class="bottom-axis"><g class="axis-line"><path d="M 61.34179878234863,468 L 700,468" fill="none" stroke="#fff" stroke-width="2"/></g><g class="label"><text x="0" y="0" fill="#fff" font-size="14" dominant-baseline="text-before-edge" text-anchor="middle" transform="translate(91.34179878234863, 479) rotate(0)">2022</text><text x="0" y="0" fill="#fff" font-size="14" dominant-baseline="text-before-edge" text-anchor="middle" transform="translate(187.78483231862384, 479) rotate(0)">2023</text><text x="0" y="0" fill="#fff" font-size="14" dominant-baseline="text-before-edge" text-anchor="middle" transform="translate(284.22786585489905, 479) rotate(0)">2024</text><text x="0" y="0" fill="#fff" font-size="14" dominant-baseline="text-before-edge" text-anchor="middle" transform="translate(380.6708993911743, 479) rotate(0)">2025</text><text x="0" y="0" fill="#fff" font-size="14" dominant-baseline="text-before-edge" text-anchor="middle" transform="translate(477.1139329274495, 479) rotate(0)">2026</text><text x="0" y="0" fill="#fff" font-size="14" dominant-baseline="text-before-edge" text-anchor="middle" transform="translate(573.5569664637247, 479) rotate(0)">2028</text><text x="0" y="0" fill="#fff" font-size="14" dominant-baseline="text-before-edge" text-anchor="middle" transform="translate(670, 479) rotate(0)">2030</text></g><g class="ticks"><path d="M 91.34179878234863,469 L 91.34179878234863,474" fill="none" stroke="#fff" stroke-width="2"/><path d="M 187.78483231862384,469 L 187.78483231862384,474" fill="none" stroke="#fff" stroke-width="2"/><path d="M 284.22786585489905,469 L 284.22786585489905,474" fill="none" stroke="#fff" stroke-width="2"/><path d="M 380.6708993911743,469 L 380.6708993911743,474" fill="none" stroke="#fff" stroke-width="2"/><path d="M 477.1139329274495,469 L 477.1139329274495,474" fill="none" stroke="#fff" stroke-width="2"/><path d="M 573.5569664637247,469 L 573.5569664637247,474" fill="none" stroke="#fff" stroke-width="2"/><path d="M 670,469 L 670,474" fill="none" stroke="#fff" stroke-width="2"/></g></g><g class="left-axis"><g class="axisl-line"><path d="M 60.34179878234863,43 L 60.34179878234863,467" fill="none" stroke="#fff" stroke-width="2"/></g><g class="label"><text x="0" y="0" fill="#fff" font-size="14" dominant-baseline="middle" text-anchor="end" transform="translate(49.34179878234863, 51) rotate(0)">10</text><text x="0" y="0" fill="#fff" font-size="14" dominant-baseline="middle" text-anchor="end" transform="translate(49.34179878234863, 91.79999999999998) rotate(0)">9</text><text x="0" y="0" fill="#fff" font-size="14" dominant-baseline="middle" text-anchor="end" transform="translate(49.34179878234863, 132.6) rotate(0)">8</text><text x="0" y="0" fill="#fff" font-size="14" dominant-baseline="middle" text-anchor="end" transform="translate(49.34179878234863, 173.4) rotate(0)">7</text><text x="0" y="0" fill="#fff" font-size="14" dominant-baseline="middle" text-anchor="end" transform="translate(49.34179878234863, 214.20000000000002) rotate(0)">6</text><text x="0" y="0" fill="#fff" font-size="14" dominant-baseline="middle" text-anchor="end" transform="translate(49.34179878234863, 255) rotate(0)">5</text><text x="0" y="0" fill="#fff" font-size="14" dominant-baseline="middle" text-anchor="end" transform="translate(49.34179878234863, 295.79999999999995) rotate(0)">4</text><text x="0" y="0" fill="#fff" font-size="14" dominant-baseline="middle" text-anchor="end" transform="translate(49.34179878234863, 336.59999999999997) rotate(0)">3</text><text x="0" y="0" fill="#fff" font-size="14" dominant-baseline="middle" text-anchor="end" transform="translate(49.34179878234863, 377.40000000000003) rotate(0)">2</text><text x="0" y="0" fill="#fff" font-size="14" dominant-baseline="middle" text-anchor="end" transform="translate(49.34179878234863, 418.20000000000005) rotate(0)">1</text><text x="0" y="0" fill="#fff" font-size="14" dominant-baseline="middle" text-anchor="end" transform="translate(49.34179878234863, 459) rotate(0)">0</text></g><g class="ticks"><path d="M 59.34179878234863,51 L 54.34179878234863,51" fill="none" stroke="#fff" stroke-width="2"/><path d="M 59.34179878234863,91.79999999999998 L 54.34179878234863,91.79999999999998" fill="none" stroke="#fff" stroke-width="2"/><path d="M 59.34179878234863,132.6 L 54.34179878234863,132.6" fill="none" stroke="#fff" stroke-width="2"/><path d="M 59.34179878234863,173.4 L 54.34179878234863,173.4" fill="none" stroke="#fff" stroke-width="2"/><path d="M 59.34179878234863,214.20000000000002 L 54.34179878234863,214.20000000000002" fill="none" stroke="#fff" stroke-width="2"/><path d="M 59.34179878234863,255 L 54.34179878234863,255" fill="none" stroke="#fff" stroke-width="2"/><path d="M 59.34179878234863,295.79999999999995 L 54.34179878234863,295.79999999999995" fill="none" stroke="#fff" stroke-width="2"/><path d="M 59.34179878234863,336.59999999999997 L 54.34179878234863,336.59999999999997" fill="none" stroke="#fff" stroke-width="2"/><path d="M 59.34179878234863,377.40000000000003 L 54.34179878234863,377.40000000000003" fill="none" stroke="#fff" stroke-width="2"/><path d="M 59.34179878234863,418.20000000000005 L 54.34179878234863,418.20000000000005" fill="none" stroke="#fff" stroke-width="2"/><path d="M 59.34179878234863,459 L 54.34179878234863,459" fill="none" stroke="#fff" stroke-width="2"/></g><g class="title"><text x="0" y="0" fill="#fff" font-size="16" dominant-baseline="text-before-edge" text-anchor="middle" transform="translate(5, 255) rotate(270)">兆円</text></g></g></g><g class="mermaid-tmp-group"/></svg>